<?xml version="1.0" encoding="UTF-8"?>
<svg version="1.1" id="图层_1" x="0px" y="0px" width="200px" height="200px" viewBox="0 0 200 200" enable-background="new 0 0 200 200" xml:space="preserve" xmlns="http://www.w3.org/2000/svg" xmlns:xlink="http://www.w3.org/1999/xlink" xmlns:xml="http://www.w3.org/XML/1998/namespace" style="transform: rotate(0deg) scale(1, 1); opacity: 1; position: absolute; backface-visibility: hidden; left: 217.5px; top: 171.9px; width: 290px; height: 290px; overflow: visible;"><defs class="defs"><linearGradient id="linearGradient96b05fa193ed2c115e6d6606a22b3b84" class="linearGradient1" gradientTransform="translate(0.5,0.5) rotate(0) translate(-0.5,-0.5)" x1="50%" y1="0%" x2="50%" y2="100%"><stop id="stop1" offset="0%" class="linearGradientColor1" stop-color="#4500ff"></stop><stop id="stop2" offset="100%" class="linearGradientColor2" stop-color="#bf2bb7"></stop></linearGradient></defs>
  <path fill="url(#linearGradient96b05fa193ed2c115e6d6606a22b3b84)" d="M146.15,39.184c1.141,4.113-1.267,8.372-5.38,9.513c-4.113,1.141-8.372-1.267-9.513-5.38
	c-0.372-1.339-0.361-2.691-0.044-3.948c-16.608-8.92-36.06-11.174-54.392-6.085c-28.512,7.913-49.402,31.987-53.222,61.331
	c-1.268,9.749-0.567,19.538,2.085,29.094c3.72,13.406,10.949,25.174,21.051,34.422c0.609-0.378,1.279-0.68,2.004-0.882
	c4.113-1.141,8.372,1.267,9.513,5.38c1.141,4.113-1.267,8.372-5.38,9.513s-8.372-1.267-9.513-5.38
	c-0.464-1.672-0.333-3.365,0.252-4.865c-10.872-9.89-18.646-22.504-22.636-36.882c-2.828-10.189-3.575-20.629-2.222-31.031
	c4.073-31.295,26.353-56.969,56.761-65.409c19.673-5.458,40.56-3.006,58.344,6.655c0.796-0.641,1.731-1.136,2.778-1.426
	C140.75,32.663,145.009,35.071,146.15,39.184z M167.533,76.322c-4.113,1.141-6.521,5.401-5.38,9.513
	c0.878,3.163,3.601,5.31,6.682,5.618c2.946,16.723,0.036,33.8-8.431,48.772c-8.467,14.973-21.603,26.267-37.452,32.361
	c-1.851-2.482-5.095-3.709-8.258-2.831c-4.113,1.141-6.521,5.401-5.38,9.513c1.141,4.113,5.401,6.521,9.513,5.38
	c3.414-0.947,5.646-4.044,5.656-7.421c17.006-6.478,31.103-18.556,40.174-34.596c9.071-16.04,12.156-34.345,8.944-52.257
	c2.889-1.749,4.392-5.257,3.445-8.671C175.905,77.589,171.646,75.18,167.533,76.322z M194.164,95.089
	c-3.729-47.505-41.748-85.524-89.253-89.253C103.974,2.472,100.896,0,97.233,0c-4.406,0-7.977,3.571-7.977,7.977
	c0,4.405,3.571,7.977,7.977,7.977c3.438,0,6.36-2.18,7.481-5.23c44.967,3.622,80.94,39.595,84.562,84.562
	c-3.05,1.121-5.23,4.042-5.23,7.481c0,4.406,3.571,7.977,7.977,7.977c4.406,0,7.977-3.571,7.977-7.977
	C200,99.104,197.528,96.025,194.164,95.089z M147.083,175.573c-4.406,0-7.977,3.571-7.977,7.977c0,0.5,0.052,0.986,0.14,1.461
	c-12.948,6.621-27.324,10.103-42.012,10.103c-50.92,0-92.347-41.427-92.347-92.347c0-35.827,21.066-68.537,53.122-83.619
	c1.463,1.698,3.624,2.777,6.041,2.777c4.406,0,7.977-3.571,7.977-7.977c0-4.406-3.571-7.977-7.977-7.977s-7.977,3.571-7.977,7.977
	c0,0.234,0.015,0.464,0.035,0.692C22.257,30.483,0,64.979,0,102.767C0,156.381,43.619,200,97.233,200
	c15.503,0,30.678-3.685,44.339-10.691c1.432,1.371,3.371,2.219,5.511,2.219c4.406,0,7.977-3.571,7.977-7.977
	S151.488,175.573,147.083,175.573z M48.532,102.751c0-3.926-3.182-7.108-7.108-7.108c-3.925,0-7.108,3.182-7.108,7.108
	c0,3.22,2.143,5.936,5.079,6.81c3.383,28.681,27.827,51.008,57.403,51.008c17.29,0,33.534-7.648,44.567-20.982
	c6.167-7.453,10.388-16.392,12.208-25.85c0.692-3.596,1.043-7.292,1.043-10.986c0-31.881-25.937-57.818-57.818-57.818
	c-7.319,0-14.582,1.399-21.338,4.076c-1.266-1.168-2.953-1.887-4.811-1.887c-3.926,0-7.108,3.182-7.108,7.107
	c0,3.926,3.182,7.108,7.108,7.108c3.925,0,7.107-3.182,7.107-7.108c0-0.288-0.022-0.57-0.055-0.849
	c6.06-2.338,12.553-3.561,19.097-3.561c29.187,0,52.932,23.745,52.932,52.932c0,3.385-0.321,6.77-0.955,10.062
	c-1.665,8.655-5.529,16.836-11.174,23.659c-10.101,12.209-24.973,19.211-40.802,19.211c-26.983,0-49.299-20.3-52.517-46.426
	C46.783,108.156,48.532,105.66,48.532,102.751z" class="color c1"></path>
</svg>